<svg xmlns="http://www.w3.org/2000/svg" width="784.17" height="213.719" viewBox="0 0 784.17 213.719">
  <g id="vetor" transform="translate(163.7 -1465.309)">
    <path id="Caminho_715" data-name="Caminho 715" d="M-167.711-50.457A98.238,98.238,0,0,0-203.022-11.6Q-215.593,12.857-215.588,42t12.566,53.6a98.167,98.167,0,0,0,35.311,38.858q22.741,14.4,51.058,14.4,43.259,0,73.645-31.321T-12.627,42q0-44.218-30.381-75.538t-73.645-31.321q-28.318,0-51.058,14.4m121.84,19.931Q-16.763-.542-16.763,42t-29.108,72.523Q-74.979,144.5-116.653,144.5q-41.037,0-67.919-29.646T-211.452,42q0-43.213,26.881-72.858t67.919-29.646q41.671,0,70.782,29.981M175.065-62.516V139.478L37-63.856a1.86,1.86,0,0,0-1.591-1c-1.486,0-2.227.785-2.227,2.345V146.512c0,1.56.686,2.345,2.068,2.345s2.068-.785,2.068-2.345V-55.482L175.383,147.852a2.107,2.107,0,0,0,1.909,1c1.481,0,2.227-.785,2.227-2.345V-62.516c0-1.56-.746-2.345-2.227-2.345s-2.227.785-2.227,2.345m52.493-2.345c-1.486,0-2.227.785-2.227,2.345s.741,2.345,2.227,2.345L365.3-60.506,225.649,145.172a3.059,3.059,0,0,0-.318,1.34c0,1.56.741,2.345,2.227,2.345H369.439a2.178,2.178,0,1,0,0-4.355H231.693L371.03-61.176a1.969,1.969,0,0,0,.636-1.34c0-1.56-.746-2.345-2.227-2.345Zm194.689,2.177a1.945,1.945,0,0,0,2.227,2.177H566.355a1.947,1.947,0,0,0,2.227-2.177,1.949,1.949,0,0,0-2.227-2.177H424.473a1.947,1.947,0,0,0-2.227,2.177m0,104.682q0,2.347,2.227,2.345H552.039c1.481,0,2.227-.78,2.227-2.345s-.746-2.345-2.227-2.345H424.473c-1.486,0-2.227.785-2.227,2.345m0,104.682a1.947,1.947,0,0,0,2.227,2.177H566.355a2.178,2.178,0,1,0,0-4.355H424.473a1.944,1.944,0,0,0-2.227,2.177" transform="translate(51.888 1530.17)" fill="#373d4a"/>
  </g>
</svg>
