<svg width="736" height="202" viewBox="0 0 736 202" fill="none" xmlns="http://www.w3.org/2000/svg">
<g opacity="0.1">
<path d="M44.895 14.1386C30.6742 23.1448 19.6369 35.2912 11.7831 50.5776C3.92918 65.8641 0.00149264 82.6171 0 100.837C0 119.055 3.92768 135.808 11.7831 151.095C19.6384 166.382 30.6757 178.528 44.895 187.534C59.1123 196.536 75.0718 201.038 92.7733 201.041C119.817 201.041 142.836 191.251 161.831 171.671C180.82 152.093 190.317 128.482 190.322 100.838C190.327 73.1937 180.83 49.5817 161.831 30.0016C142.837 10.4231 119.818 0.633084 92.7733 0.631592C75.0707 0.631592 59.1112 5.13394 44.895 14.1386ZM159.147 32.8283C177.343 51.5721 186.442 74.2415 186.442 100.837C186.442 127.432 177.343 150.101 159.147 168.845C140.95 187.587 118.825 196.957 92.7733 196.955C67.119 196.955 45.8896 187.688 29.0851 169.155C12.2807 150.623 3.87824 127.849 3.87787 100.835C3.87787 73.8208 12.2801 51.0473 29.0846 32.5143C45.8891 13.9814 67.1186 4.71488 92.7733 4.71488C118.824 4.71488 140.948 14.086 159.147 32.8283ZM366.322 2.83025V192.246L236.854 1.57643C236.712 1.30097 236.498 1.06848 236.236 0.90289C235.974 0.737306 235.672 0.644622 235.362 0.634389C233.969 0.634389 233.274 1.37045 233.274 2.83304V198.842C233.274 200.305 233.917 201.041 235.213 201.041C236.509 201.041 237.152 200.305 237.152 198.842V9.42677L366.619 200.096C366.805 200.4 367.07 200.648 367.385 200.814C367.7 200.98 368.055 201.057 368.411 201.038C369.8 201.038 370.499 200.302 370.499 198.84V2.83025C370.499 1.36765 369.8 0.631592 368.411 0.631592C367.021 0.631592 366.323 1.36765 366.323 2.83025M415.546 0.631592C414.152 0.631592 413.458 1.36765 413.458 2.83025C413.458 4.29284 414.151 5.0317 415.543 5.0317L544.71 4.71768L413.755 197.582C413.561 197.973 413.459 198.402 413.457 198.838C413.457 200.301 414.151 201.037 415.544 201.037H548.589C549.979 201.037 550.678 200.355 550.678 198.995C550.678 197.636 549.979 196.954 548.589 196.954H419.423L550.081 4.08686C550.436 3.76175 550.65 3.31087 550.678 2.83025C550.678 1.36765 549.979 0.631592 548.589 0.631592H415.546ZM598.108 2.67296C598.108 4.0376 598.802 4.71488 600.196 4.71488H733.24C734.629 4.71488 735.328 4.0376 735.328 2.67296C735.328 1.30832 734.629 0.631592 733.24 0.631592H600.196C598.802 0.631592 598.106 1.31205 598.108 2.67296M598.108 100.835C598.108 102.303 598.804 103.035 600.196 103.034H719.817C721.207 103.034 721.906 102.302 721.906 100.835C721.906 99.3678 721.207 98.6362 719.817 98.6362H600.196C598.802 98.6362 598.108 99.3723 598.108 100.835ZM598.108 198.996C598.108 200.356 598.804 201.037 600.196 201.038H733.241C734.63 201.038 735.329 200.356 735.329 198.996C735.329 197.637 734.63 196.955 733.241 196.955H600.196C598.802 196.955 598.108 197.632 598.108 198.996Z" fill="#A56135"/>
</g>
</svg>
